<svg width="9" height="8" viewBox="0 0 9 8" fill="none" xmlns="http://www.w3.org/2000/svg">
<path fill-rule="evenodd" clip-rule="evenodd" d="M4.80478 0.195262C5.06513 0.455612 5.06513 0.877722 4.80478 1.13807L1.94285 4L4.80478 6.86193C5.06513 7.12228 5.06513 7.54439 4.80478 7.80474C4.54443 8.06509 4.12232 8.06509 3.86197 7.80474L0.528636 4.4714C0.268287 4.21106 0.268287 3.78894 0.528636 3.5286L3.86197 0.195262C4.12232 -0.0650874 4.54443 -0.0650874 4.80478 0.195262ZM8.80478 0.195262C9.06513 0.455612 9.06513 0.877722 8.80478 1.13807L5.94285 4L8.80478 6.86193C9.06513 7.12228 9.06513 7.54439 8.80478 7.80474C8.54443 8.06509 8.12232 8.06509 7.86197 7.80474L4.52864 4.4714C4.26829 4.21106 4.26829 3.78894 4.52864 3.5286L7.86197 0.195262C8.12232 -0.0650874 8.54443 -0.0650874 8.80478 0.195262Z" fill="#434343"/>
</svg>
