<svg width="14" height="14" viewBox="0 0 14 14" fill="none" xmlns="http://www.w3.org/2000/svg">
<path fill-rule="evenodd" clip-rule="evenodd" d="M4.4487 0.840722C5.25753 0.50569 6.12444 0.333252 6.99992 0.333252C7.8754 0.333252 8.7423 0.50569 9.55114 0.840722C10.36 1.17575 11.0949 1.66682 11.714 2.28587C12.333 2.90493 12.8241 3.63986 13.1591 4.4487C13.4941 5.25753 13.6666 6.12444 13.6666 6.99992C13.6666 7.8754 13.4941 8.7423 13.1591 9.55114C12.8241 10.36 12.333 11.0949 11.714 11.714C11.0949 12.333 10.36 12.8241 9.55114 13.1591C8.7423 13.4941 7.8754 13.6666 6.99992 13.6666C6.12444 13.6666 5.25753 13.4941 4.4487 13.1591C3.63986 12.8241 2.90493 12.333 2.28587 11.714C1.66682 11.0949 1.17575 10.36 0.840722 9.55114C0.50569 8.7423 0.333252 7.8754 0.333252 6.99992C0.333252 6.12444 0.50569 5.25753 0.840722 4.4487C1.17575 3.63986 1.66682 2.90493 2.28587 2.28587C2.90493 1.66682 3.63986 1.17575 4.4487 0.840722ZM6.99992 1.66659C6.29954 1.66659 5.60601 1.80454 4.95894 2.07256C4.31187 2.34059 3.72393 2.73344 3.22868 3.22868C2.73344 3.72393 2.34059 4.31187 2.07256 4.95894C1.80454 5.60601 1.66659 6.29954 1.66659 6.99992C1.66659 7.7003 1.80454 8.39383 2.07256 9.0409C2.34059 9.68797 2.73344 10.2759 3.22868 10.7712C3.72393 11.2664 4.31187 11.6593 4.95894 11.9273C5.60601 12.1953 6.29954 12.3333 6.99992 12.3333C7.7003 12.3333 8.39383 12.1953 9.0409 11.9273C9.68797 11.6593 10.2759 11.2664 10.7712 10.7712C11.2664 10.2759 11.6593 9.68797 11.9273 9.0409C12.1953 8.39383 12.3333 7.7003 12.3333 6.99992C12.3333 6.29954 12.1953 5.60601 11.9273 4.95894C11.6593 4.31187 11.2664 3.72393 10.7712 3.22868C10.2759 2.73344 9.68797 2.34059 9.0409 2.07256C8.39383 1.80454 7.7003 1.66659 6.99992 1.66659ZM9.47132 5.19518C9.73167 5.45553 9.73167 5.87764 9.47132 6.13799L6.80466 8.80466C6.54431 9.06501 6.1222 9.06501 5.86185 8.80466L4.52851 7.47132C4.26816 7.21097 4.26816 6.78886 4.52851 6.52851C4.78886 6.26816 5.21097 6.26816 5.47132 6.52851L6.33325 7.39044L8.52851 5.19518C8.78886 4.93483 9.21097 4.93483 9.47132 5.19518Z" fill="#24B364"/>
</svg>
