<svg width="16" height="16" viewBox="0 0 16 16" fill="none" xmlns="http://www.w3.org/2000/svg">
<path fill-rule="evenodd" clip-rule="evenodd" d="M8 3.33333C7.82318 3.33333 7.65361 3.40357 7.52859 3.5286C7.40357 3.65362 7.33333 3.82319 7.33333 4V5.33333C7.33333 5.70152 7.03485 6 6.66666 6C6.29847 6 6 5.70152 6 5.33333V4C6 3.46957 6.21071 2.96086 6.58578 2.58579C6.96085 2.21071 7.46956 2 8 2H12.6667C13.1971 2 13.7058 2.21071 14.0809 2.58579C14.4559 2.96086 14.6667 3.46957 14.6667 4V12C14.6667 12.5304 14.4559 13.0391 14.0809 13.4142C13.7058 13.7893 13.1971 14 12.6667 14H8C7.46956 14 6.96085 13.7893 6.58578 13.4142C6.21071 13.0391 6 12.5304 6 12V10.6667C6 10.2985 6.29847 10 6.66666 10C7.03485 10 7.33333 10.2985 7.33333 10.6667V12C7.33333 12.1768 7.40357 12.3464 7.52859 12.4714C7.65362 12.5964 7.82318 12.6667 8 12.6667H12.6667C12.8435 12.6667 13.013 12.5964 13.1381 12.4714C13.2631 12.3464 13.3333 12.1768 13.3333 12V4C13.3333 3.82319 13.2631 3.65362 13.1381 3.5286C13.013 3.40357 12.8435 3.33333 12.6667 3.33333H8ZM4.4714 5.5286C4.73175 5.78894 4.73175 6.21106 4.4714 6.4714L3.60947 7.33333H10C10.3682 7.33333 10.6667 7.63181 10.6667 8C10.6667 8.36819 10.3682 8.66667 10 8.66667H3.60947L4.4714 9.5286C4.73175 9.78895 4.73175 10.2111 4.4714 10.4714C4.21105 10.7318 3.78894 10.7318 3.52859 10.4714L1.52859 8.4714C1.26824 8.21106 1.26824 7.78895 1.52859 7.5286L3.52859 5.5286C3.78894 5.26825 4.21105 5.26825 4.4714 5.5286Z" fill="#434343"/>
</svg>
