<svg width="14" height="14" viewBox="0 0 14 14" fill="none" xmlns="http://www.w3.org/2000/svg">
<path fill-rule="evenodd" clip-rule="evenodd" d="M3.62585 0.73935C4.27292 0.471325 4.96645 0.333374 5.66683 0.333374C6.36721 0.333374 7.06074 0.471325 7.70781 0.73935C8.35488 1.00737 8.94282 1.40023 9.43807 1.89547C9.93331 2.39072 10.3262 2.97866 10.5942 3.62573C10.8622 4.2728 11.0002 4.96632 11.0002 5.66671C11.0002 6.36709 10.8622 7.06062 10.5942 7.70769C10.4116 8.14841 10.1712 8.5617 9.87989 8.93696L13.4716 12.5286C13.7319 12.789 13.7319 13.2111 13.4716 13.4714C13.2112 13.7318 12.7891 13.7318 12.5288 13.4714L8.93708 9.87977C8.56183 10.1711 8.14853 10.4115 7.70781 10.5941C7.06074 10.8621 6.36721 11 5.66683 11C4.96645 11 4.27292 10.8621 3.62585 10.5941C2.97878 10.326 2.39084 9.93319 1.89559 9.43794C1.40035 8.9427 1.0075 8.35476 0.739472 7.70769C0.471447 7.06062 0.333496 6.36709 0.333496 5.66671C0.333496 4.96632 0.471447 4.2728 0.739472 3.62573C1.0075 2.97866 1.40035 2.39072 1.89559 1.89547C2.39084 1.40023 2.97878 1.00737 3.62585 0.73935ZM5.66683 1.66671C5.14154 1.66671 4.6214 1.77017 4.1361 1.97119C3.65079 2.17221 3.20984 2.46685 2.8384 2.83828C2.46697 3.20971 2.17233 3.65067 1.97131 4.13597C1.77029 4.62128 1.66683 5.14142 1.66683 5.66671C1.66683 6.192 1.77029 6.71214 1.97131 7.19744C2.17233 7.68274 2.46697 8.1237 2.8384 8.49513C3.20984 8.86657 3.65079 9.16121 4.1361 9.36223C4.6214 9.56324 5.14154 9.66671 5.66683 9.66671C6.19212 9.66671 6.71226 9.56324 7.19756 9.36223C7.68287 9.16121 8.12382 8.86657 8.49526 8.49513C8.86669 8.1237 9.16133 7.68274 9.36235 7.19744C9.56337 6.71214 9.66683 6.192 9.66683 5.66671C9.66683 5.14142 9.56337 4.62128 9.36235 4.13597C9.16133 3.65067 8.86669 3.20971 8.49526 2.83828C8.12382 2.46685 7.68287 2.17221 7.19756 1.97119C6.71226 1.77017 6.19212 1.66671 5.66683 1.66671Z" fill="#434343"/>
</svg>
