<svg width="16" height="16" viewBox="0 0 16 16" fill="none" xmlns="http://www.w3.org/2000/svg">
<path fill-rule="evenodd" clip-rule="evenodd" d="M7.60116 2.10656L3.1106 4.75432C3.10482 4.75773 3.099 4.76105 3.09312 4.76428C2.82737 4.91035 2.66666 5.18441 2.66666 5.47805V10.334C2.66706 10.4801 2.70666 10.6234 2.78133 10.749C2.8561 10.8748 2.96329 10.9782 3.09169 11.0484C3.10416 11.0552 3.1164 11.0624 3.1284 11.07L7.60842 13.904C7.72922 13.9671 7.86355 14.0001 8 14.0001C8.13644 14.0001 8.27077 13.9671 8.39157 13.904L12.8716 11.07C12.8831 11.0627 12.8949 11.0557 12.9069 11.0492C13.1723 10.9033 13.3333 10.6287 13.3333 10.3347V5.47455C13.3342 5.32943 13.2965 5.1867 13.2239 5.06103C13.1513 4.93536 13.0466 4.8313 12.9204 4.75956C12.8813 4.73729 12.8451 4.71152 12.8121 4.68282L8.44284 2.10656C8.31356 2.03685 8.16895 2.00033 8.022 2.00033C7.87504 2.00033 7.73043 2.03685 7.60116 2.10656ZM13.726 3.69178C13.6913 3.65952 13.6527 3.63061 13.6106 3.60578L9.1106 0.952446C9.10508 0.949187 9.0995 0.946008 9.09388 0.94291C8.76561 0.761915 8.39686 0.666992 8.022 0.666992C7.64713 0.666992 7.27838 0.761915 6.95011 0.94291C6.94449 0.946008 6.93891 0.949187 6.93339 0.952446L2.44126 3.60114C1.75928 3.98047 1.33333 4.6967 1.33333 5.47805V10.3347L1.33333 10.3361C1.3341 10.7213 1.43836 11.0992 1.63521 11.4304C1.82809 11.7548 2.10292 12.0227 2.43193 12.2071L6.91559 15.0435C6.92722 15.0508 6.93908 15.0578 6.95115 15.0644C7.27257 15.2409 7.63332 15.3334 8 15.3334C8.36667 15.3334 8.72742 15.2409 9.04884 15.0644C9.06091 15.0578 9.07277 15.0508 9.0844 15.0435L13.5687 12.2067C14.2451 11.8258 14.6667 11.1119 14.6667 10.3347V5.48067C14.6687 5.09939 14.5692 4.72442 14.3785 4.39422C14.2163 4.1133 13.993 3.8734 13.726 3.69178ZM6.11438 6.11438C6.61447 5.61428 7.29275 5.33333 8 5.33333C8.70724 5.33333 9.38552 5.61428 9.88561 6.11438C10.3857 6.61448 10.6667 7.29276 10.6667 8C10.6667 8.70724 10.3857 9.38552 9.88561 9.88562C9.38552 10.3857 8.70724 10.6667 8 10.6667C7.29275 10.6667 6.61447 10.3857 6.11438 9.88562C5.61428 9.38552 5.33333 8.70724 5.33333 8C5.33333 7.29276 5.61428 6.61448 6.11438 6.11438ZM8 6.66667C7.64637 6.66667 7.30723 6.80714 7.05719 7.05719C6.80714 7.30724 6.66666 7.64638 6.66666 8C6.66666 8.35362 6.80714 8.69276 7.05719 8.94281C7.30723 9.19286 7.64637 9.33333 8 9.33333C8.35362 9.33333 8.69276 9.19286 8.9428 8.94281C9.19285 8.69276 9.33333 8.35362 9.33333 8C9.33333 7.64638 9.19285 7.30724 8.9428 7.05719C8.69276 6.80714 8.35362 6.66667 8 6.66667Z" fill="#434343"/>
</svg>
