<svg width="24" height="24" viewBox="0 0 24 24" fill="none" xmlns="http://www.w3.org/2000/svg">
<path fill-rule="evenodd" clip-rule="evenodd" d="M4.17157 4.17157C4.92172 3.42143 5.93913 3 7 3H11C12.0609 3 13.0783 3.42143 13.8284 4.17157C14.5786 4.92172 15 5.93913 15 7V20H18V17.8284C17.5821 17.6807 17.1981 17.4407 16.8787 17.1213C16.3161 16.5587 16 15.7957 16 15V13C16 12.2043 16.3161 11.4413 16.8787 10.8787C17.4413 10.3161 18.2043 10 19 10C19.7957 10 20.5587 10.3161 21.1213 10.8787C21.6839 11.4413 22 12.2043 22 13V15C22 15.7957 21.6839 16.5587 21.1213 17.1213C20.8019 17.4407 20.4179 17.6807 20 17.8284V20H21C21.5523 20 22 20.4477 22 21C22 21.5523 21.5523 22 21 22H3C2.44772 22 2 21.5523 2 21C2 20.4477 2.44772 20 3 20V7C3 5.93913 3.42143 4.92172 4.17157 4.17157ZM5 20H8V17C8 16.4477 8.44772 16 9 16C9.55228 16 10 16.4477 10 17V20H13V7C13 6.46957 12.7893 5.96086 12.4142 5.58579C12.0391 5.21071 11.5304 5 11 5H7C6.46957 5 5.96086 5.21071 5.58579 5.58579C5.21071 5.96086 5 6.46957 5 7V20ZM7 9C7 8.44772 7.44772 8 8 8H10C10.5523 8 11 8.44772 11 9C11 9.55228 10.5523 10 10 10H8C7.44772 10 7 9.55228 7 9ZM19 12C18.7348 12 18.4804 12.1054 18.2929 12.2929C18.1054 12.4804 18 12.7348 18 13V15C18 15.2652 18.1054 15.5196 18.2929 15.7071C18.4804 15.8946 18.7348 16 19 16C19.2652 16 19.5196 15.8946 19.7071 15.7071C19.8946 15.5196 20 15.2652 20 15V13C20 12.7348 19.8946 12.4804 19.7071 12.2929C19.5196 12.1054 19.2652 12 19 12ZM7 13C7 12.4477 7.44772 12 8 12H10C10.5523 12 11 12.4477 11 13C11 13.5523 10.5523 14 10 14H8C7.44772 14 7 13.5523 7 13Z" fill="#505660"/>
</svg>
