<svg width="24" height="24" viewBox="0 0 24 24" fill="none" xmlns="http://www.w3.org/2000/svg">
<path fill-rule="evenodd" clip-rule="evenodd" d="M2.58579 2.58579C2.96086 2.21071 3.46957 2 4 2H6C6.53043 2 7.03914 2.21071 7.41421 2.58579C7.78929 2.96086 8 3.46957 8 4V8C8 8.53043 7.78929 9.03914 7.41421 9.41421C7.03914 9.78929 6.53043 10 6 10V20C6 20.5523 5.55228 21 5 21C4.44772 21 4 20.5523 4 20V10C3.46957 10 2.96086 9.78929 2.58579 9.41421C2.21071 9.03914 2 8.53043 2 8V4C2 3.46957 2.21071 2.96086 2.58579 2.58579ZM6 8V4H4V8H6ZM16.0213 4C16.0078 3.99972 15.9943 3.99972 15.9807 4H10C9.44772 4 9 4.44772 9 5C9 5.55228 9.44772 6 10 6H11V9H9.5C8.94772 9 8.5 9.44772 8.5 10C8.5 10.5523 8.94772 11 9.5 11H16.263L16.5222 12.2095C16.621 12.6706 17.0285 13 17.5 13H21V16H20.8284C20.6807 15.5821 20.4407 15.1981 20.1213 14.8787C19.5587 14.3161 18.7957 14 18 14C17.2043 14 16.4413 14.3161 15.8787 14.8787C15.5593 15.1981 15.3193 15.5821 15.1716 16H8C7.44772 16 7 16.4477 7 17C7 17.5523 7.44772 18 8 18H15.1716C15.3193 18.4179 15.5593 18.8019 15.8787 19.1213C16.4413 19.6839 17.2043 20 18 20C18.7957 20 19.5587 19.6839 20.1213 19.1213C20.4407 18.8019 20.6807 18.4179 20.8284 18H22C22.5523 18 23 17.5523 23 17V12C23 9.88256 22.3884 7.92388 21.3491 6.46899C20.3112 5.01605 18.7873 4 17 4H16.0213ZM20.9436 11C20.7914 9.66639 20.3415 8.49922 19.7217 7.63151C19.0131 6.63952 18.1323 6.09388 17.2394 6.01109L18.3084 11H20.9436ZM15.8344 9L15.1916 6H13V9H15.8344ZM18 16C17.7348 16 17.4804 16.1054 17.2929 16.2929C17.1054 16.4804 17 16.7348 17 17C17 17.2652 17.1054 17.5196 17.2929 17.7071C17.4804 17.8946 17.7348 18 18 18C18.2652 18 18.5196 17.8946 18.7071 17.7071C18.8946 17.5196 19 17.2652 19 17C19 16.7348 18.8946 16.4804 18.7071 16.2929C18.5196 16.1054 18.2652 16 18 16Z" fill="#D04116"/>
</svg>
