<svg width="24" height="24" viewBox="0 0 24 24" fill="none" xmlns="http://www.w3.org/2000/svg">
<path fill-rule="evenodd" clip-rule="evenodd" d="M2.33119 8.25667C2.74173 7.88724 3.37401 7.92056 3.74345 8.33109C5.953 10.7865 8.68242 12 12.0001 12C15.3178 12 18.0472 10.7865 20.2568 8.33109C20.6262 7.92056 21.2585 7.88724 21.669 8.25667C22.0796 8.62611 22.1129 9.25839 21.7434 9.66893C21.1492 10.3293 20.5192 10.9145 19.8542 11.4245L21.8346 14.4251C22.1388 14.8861 22.0117 15.5064 21.5507 15.8106C21.0898 16.1148 20.4695 15.9877 20.1653 15.5268L18.1757 12.512C17.3533 12.9546 16.4863 13.2989 15.5759 13.5442L15.9924 16.876C16.0609 17.424 15.6722 17.9238 15.1241 17.9923C14.5761 18.0608 14.0763 17.6721 14.0078 17.124L13.6065 13.9134C13.0833 13.9711 12.5478 14 12.0001 14C11.4524 14 10.9169 13.9711 10.3937 13.9134L9.99239 17.124C9.92389 17.6721 9.4241 18.0608 8.87608 17.9923C8.32806 17.9238 7.93933 17.424 8.00783 16.876L8.4243 13.5442C7.51646 13.2996 6.65178 12.9566 5.83148 12.5157L3.83553 15.5496C3.53198 16.011 2.91188 16.1389 2.4505 15.8354C1.98911 15.5318 1.86115 14.9117 2.16469 14.4503L4.15225 11.4293C3.48497 10.9182 2.85286 10.3313 2.25678 9.66893C1.88734 9.25839 1.92066 8.62611 2.33119 8.25667Z" fill="#505660"/>
</svg>
