<svg width="16" height="16" viewBox="0 0 16 16" fill="none" xmlns="http://www.w3.org/2000/svg">
<path fill-rule="evenodd" clip-rule="evenodd" d="M0.666672 3.33335C0.666672 2.96516 0.965149 2.66669 1.33334 2.66669H8.66667C9.03486 2.66669 9.33334 2.96516 9.33334 3.33335H12C12.2342 3.33335 12.4512 3.45622 12.5717 3.65702L14.5717 6.99036C14.6338 7.09397 14.6667 7.21252 14.6667 7.33335V11.3334C14.6667 11.7015 14.3682 12 14 12H13.219C13.1205 12.2786 12.9605 12.5346 12.7476 12.7476C12.3725 13.1226 11.8638 13.3334 11.3333 13.3334C10.8029 13.3334 10.2942 13.1226 9.91913 12.7476C9.70619 12.5346 9.54623 12.2786 9.44772 12H6.55229C6.45378 12.2786 6.29382 12.5346 6.08088 12.7476C5.70581 13.1226 5.19711 13.3334 4.66667 13.3334C4.13624 13.3334 3.62753 13.1226 3.25246 12.7476C3.03952 12.5346 2.87956 12.2786 2.78105 12H2.00001C1.63182 12 1.33334 11.7015 1.33334 11.3334V8.66669C1.33334 8.2985 1.63182 8.00002 2.00001 8.00002C2.36819 8.00002 2.66667 8.2985 2.66667 8.66669V10.6667H2.78105C2.87956 10.3881 3.03952 10.1321 3.25246 9.91914C3.62753 9.54407 4.13624 9.33335 4.66667 9.33335C5.19711 9.33335 5.70581 9.54407 6.08088 9.91914C6.29382 10.1321 6.45378 10.3881 6.55229 10.6667H8.00001V4.00002H1.33334C0.965149 4.00002 0.666672 3.70154 0.666672 3.33335ZM9.33334 4.66669V6.66669H12.8225L11.6225 4.66669H9.33334ZM13.3333 8.00002H9.33334V10.6667H9.44772C9.54623 10.3881 9.70619 10.1321 9.91913 9.91914C10.2942 9.54407 10.8029 9.33335 11.3333 9.33335C11.8638 9.33335 12.3725 9.54407 12.7476 9.91914C12.9605 10.1321 13.1205 10.3881 13.219 10.6667H13.3333V8.00002ZM1.33334 6.00002C1.33334 5.63183 1.63182 5.33335 2.00001 5.33335H4.66667C5.03486 5.33335 5.33334 5.63183 5.33334 6.00002C5.33334 6.36821 5.03486 6.66669 4.66667 6.66669H2.00001C1.63182 6.66669 1.33334 6.36821 1.33334 6.00002ZM4.66667 10.6667C4.48986 10.6667 4.32029 10.7369 4.19527 10.8619C4.07024 10.987 4.00001 11.1565 4.00001 11.3334C4.00001 11.5102 4.07024 11.6797 4.19527 11.8048C4.32029 11.9298 4.48986 12 4.66667 12C4.84348 12 5.01305 11.9298 5.13808 11.8048C5.2631 11.6797 5.33334 11.5102 5.33334 11.3334C5.33334 11.1565 5.2631 10.987 5.13808 10.8619C5.01305 10.7369 4.84348 10.6667 4.66667 10.6667ZM11.3333 10.6667C11.1565 10.6667 10.987 10.7369 10.8619 10.8619C10.7369 10.987 10.6667 11.1565 10.6667 11.3334C10.6667 11.5102 10.7369 11.6797 10.8619 11.8048C10.987 11.9298 11.1565 12 11.3333 12C11.5101 12 11.6797 11.9298 11.8047 11.8048C11.9298 11.6797 12 11.5102 12 11.3334C12 11.1565 11.9298 10.987 11.8047 10.8619C11.6797 10.7369 11.5101 10.6667 11.3333 10.6667Z" fill="#434343"/>
</svg>
