<svg width="24" height="24" viewBox="0 0 24 24" fill="none" xmlns="http://www.w3.org/2000/svg">
<path fill-rule="evenodd" clip-rule="evenodd" d="M10 2C10.5523 2 11 2.44772 11 3V5H16C16.3038 5 16.5911 5.13809 16.7809 5.3753L18.7809 7.87531C19.073 8.24052 19.073 8.75948 18.7809 9.12469L16.7809 11.6247C16.5911 11.8619 16.3038 12 16 12H11V20H12C12.5523 20 13 20.4477 13 21C13 21.5523 12.5523 22 12 22H8C7.44772 22 7 21.5523 7 21C7 20.4477 7.44772 20 8 20H9V12H6C5.44772 12 5 11.5523 5 11V6C5 5.44772 5.44772 5 6 5H9V3C9 2.44772 9.44772 2 10 2ZM7 7V10H15.5194L16.7194 8.5L15.5194 7H7Z" fill="#D04116"/>
</svg>
