<svg width="16" height="16" viewBox="0 0 16 16" fill="none" xmlns="http://www.w3.org/2000/svg">
<path fill-rule="evenodd" clip-rule="evenodd" d="M3.48133 1.8946C4.02952 1.52829 4.67402 1.33276 5.33333 1.33276C5.99265 1.33276 6.63715 1.52829 7.18534 1.8946C7.73353 2.26092 8.16077 2.78157 8.41303 3.39072C8.66529 3.99986 8.73124 4.67014 8.60255 5.31677C8.47386 5.96333 8.15635 6.55721 7.69016 7.02332L5.80482 8.90932C5.67979 9.0344 5.51019 9.10467 5.33333 9.10467C5.15648 9.10467 4.98688 9.0344 4.86185 8.90932L2.97667 7.02348C2.51048 6.55736 2.19281 5.96333 2.06412 5.31677C1.93543 4.67014 2.00138 3.99986 2.25364 3.39072C2.5059 2.78157 2.93314 2.26092 3.48133 1.8946ZM5.33333 2.6661C4.93775 2.6661 4.55104 2.78341 4.22213 3.0032C3.89322 3.22299 3.63688 3.53538 3.48552 3.90087C3.33416 4.26636 3.29459 4.66852 3.37181 5.0565C3.44903 5.44448 3.63957 5.80084 3.91933 6.08052L5.33333 7.49502L6.74718 6.08068C7.02695 5.801 7.21764 5.44448 7.29486 5.0565C7.37208 4.66852 7.33251 4.26636 7.18115 3.90087C7.02979 3.53538 6.77345 3.22299 6.44454 3.0032C6.11563 2.78341 5.72892 2.6661 5.33333 2.6661ZM5.33333 4C5.70152 4 6 4.29848 6 4.66667V4.67333C6 5.04152 5.70152 5.34 5.33333 5.34C4.96514 5.34 4.66667 5.04152 4.66667 4.67333V4.66667C4.66667 4.29848 4.96514 4 5.33333 4ZM8.81466 7.22794C9.36285 6.86162 10.0074 6.6661 10.6667 6.6661C11.326 6.6661 11.9705 6.86162 12.5187 7.22794C13.0669 7.59425 13.4941 8.11491 13.7464 8.72405C13.9986 9.3332 14.0646 10.0035 13.9359 10.6501C13.8072 11.2967 13.4897 11.8905 13.0235 12.3567L11.1382 14.2427C11.0131 14.3677 10.8435 14.438 10.6667 14.438C10.4898 14.438 10.3202 14.3677 10.1952 14.2427L8.31 12.3568C7.84381 11.8907 7.52614 11.2967 7.39746 10.6501C7.26876 10.0035 7.33471 9.3332 7.58697 8.72405C7.83924 8.11491 8.26648 7.59425 8.81466 7.22794ZM10.6667 7.99943C10.2711 7.99943 9.88438 8.11674 9.55546 8.33653C9.22655 8.55632 8.97021 8.86872 8.81885 9.2342C8.66749 9.59969 8.62792 10.0019 8.70514 10.3898C8.78236 10.7778 8.9729 11.1342 9.25267 11.4139L10.6667 12.8284L12.0805 11.414C12.3603 11.1343 12.551 10.7778 12.6282 10.3898C12.7054 10.0019 12.6658 9.59969 12.5145 9.2342C12.3631 8.86872 12.1068 8.55632 11.7779 8.33653C11.449 8.11674 11.0623 7.99943 10.6667 7.99943ZM10.6667 9.33333C11.0349 9.33333 11.3333 9.63181 11.3333 10V10.0067C11.3333 10.3749 11.0349 10.6733 10.6667 10.6733C10.2985 10.6733 10 10.3749 10 10.0067V10C10 9.63181 10.2985 9.33333 10.6667 9.33333Z" fill="#434343"/>
</svg>
