<svg width="16" height="16" viewBox="0 0 16 16" fill="none" xmlns="http://www.w3.org/2000/svg">
<path fill-rule="evenodd" clip-rule="evenodd" d="M5.64297 2.30968C6.26809 1.68456 7.11594 1.33337 8 1.33337C8.88405 1.33337 9.7319 1.68456 10.357 2.30968C10.9821 2.93481 11.3333 3.78265 11.3333 4.66671C11.3333 5.55076 10.9821 6.39861 10.357 7.02373C9.7319 7.64885 8.88405 8.00004 8 8.00004C7.11594 8.00004 6.26809 7.64885 5.64297 7.02373C5.01785 6.39861 4.66666 5.55076 4.66666 4.66671C4.66666 3.78265 5.01785 2.93481 5.64297 2.30968ZM8 2.66671C7.46956 2.66671 6.96085 2.87742 6.58578 3.25249C6.21071 3.62757 5.99999 4.13627 5.99999 4.66671C5.99999 5.19714 6.21071 5.70585 6.58578 6.08092C6.96085 6.45599 7.46956 6.66671 8 6.66671C8.53043 6.66671 9.03914 6.45599 9.41421 6.08092C9.78928 5.70585 10 5.19714 10 4.66671C10 4.13627 9.78928 3.62757 9.41421 3.25249C9.03914 2.87742 8.53043 2.66671 8 2.66671ZM6.66666 10.6667C6.13623 10.6667 5.62752 10.8774 5.25245 11.2525C4.87738 11.6276 4.66666 12.1363 4.66666 12.6667V14C4.66666 14.3682 4.36818 14.6667 3.99999 14.6667C3.63181 14.6667 3.33333 14.3682 3.33333 14V12.6667C3.33333 11.7827 3.68452 10.9348 4.30964 10.3097C4.93476 9.68456 5.78261 9.33337 6.66666 9.33337H9.33333C10.2174 9.33337 11.0652 9.68456 11.6904 10.3097C12.3155 10.9348 12.6667 11.7827 12.6667 12.6667V14C12.6667 14.3682 12.3682 14.6667 12 14.6667C11.6318 14.6667 11.3333 14.3682 11.3333 14V12.6667C11.3333 12.1363 11.1226 11.6276 10.7475 11.2525C10.3725 10.8774 9.86376 10.6667 9.33333 10.6667H6.66666Z" fill="#434343"/>
</svg>
