<svg width="24" height="24" viewBox="0 0 24 24" fill="none" xmlns="http://www.w3.org/2000/svg">
<rect x="1" y="1" width="22" height="22" rx="3" fill="#1A9CF2"/>
<path d="M6 18H5C4.44772 18 4 17.5523 4 17V11V6.5C4 4.84315 5.34315 3.5 7 3.5H12H17C18.6569 3.5 20 4.84315 20 6.5V11V17C20 17.5523 19.5523 18 19 18H18V19.5C18 20.0523 17.5523 20.5 17 20.5C16.4477 20.5 16 20.0523 16 19.5V18H8V19.5C8 20.0523 7.55228 20.5 7 20.5C6.44772 20.5 6 20.0523 6 19.5V18Z" fill="white"/>
<path d="M6 18H5C4.44772 18 4 17.5523 4 17V11V6.5C4 4.84315 5.34315 3.5 7 3.5H12H17C18.6569 3.5 20 4.84315 20 6.5V11V17C20 17.5523 19.5523 18 19 18H18M6 18V19.5C6 20.0523 6.44772 20.5 7 20.5V20.5C7.55228 20.5 8 20.0523 8 19.5V18M6 18H8M8 18H16M18 18V19.5C18 20.0523 17.5523 20.5 17 20.5V20.5C16.4477 20.5 16 20.0523 16 19.5V18M18 18H16" stroke="white"/>
<path d="M5 11V8C5 6.89543 5.89543 6 7 6H17C18.1046 6 19 6.89543 19 8V11C19 11.5523 18.5523 12 18 12H6C5.44772 12 5 11.5523 5 11Z" fill="#1A9CF2" stroke="white"/>
<circle cx="6.5" cy="15.5" r="1.5" fill="#1A9CF2"/>
<circle cx="17.5" cy="15.5" r="1.5" fill="#1A9CF2"/>
<path d="M8 5L16 5" stroke="#1A9CF2" stroke-linecap="round"/>
</svg>
