<svg width="17" height="17" viewBox="0 0 17 17" fill="none" xmlns="http://www.w3.org/2000/svg">
<path fill-rule="evenodd" clip-rule="evenodd" d="M6.22386 2.12385C6.47391 1.8738 6.81304 1.73332 7.16667 1.73332H9.83333C10.187 1.73332 10.5261 1.8738 10.7761 2.12385C11.0262 2.37389 11.1667 2.71303 11.1667 3.06666V4.39999H13.1589C13.1636 4.39994 13.1683 4.39994 13.173 4.39999H13.8333C14.2015 4.39999 14.5 4.69847 14.5 5.06666C14.5 5.43485 14.2015 5.73332 13.8333 5.73332H13.7801L13.1664 13.0972C13.1585 13.6166 12.9488 14.113 12.5809 14.4809C12.2058 14.8559 11.6971 15.0667 11.1667 15.0667H5.83333C5.3029 15.0667 4.79419 14.8559 4.41912 14.4809C4.05125 14.113 3.84148 13.6166 3.83357 13.0972L3.21991 5.73332H3.16667C2.79848 5.73332 2.5 5.43485 2.5 5.06666C2.5 4.69847 2.79848 4.39999 3.16667 4.39999H3.82702C3.83174 4.39994 3.83644 4.39994 3.84113 4.39999H5.83333V3.06666C5.83333 2.71303 5.97381 2.37389 6.22386 2.12385ZM4.55787 5.73332L5.16436 13.0113C5.1659 13.0297 5.16667 13.0482 5.16667 13.0667C5.16667 13.2435 5.2369 13.413 5.36193 13.5381C5.48695 13.6631 5.65652 13.7333 5.83333 13.7333H11.1667C11.3435 13.7333 11.513 13.6631 11.6381 13.5381C11.7631 13.413 11.8333 13.2435 11.8333 13.0667C11.8333 13.0482 11.8341 13.0297 11.8356 13.0113L12.4421 5.73332H4.55787ZM9.83333 4.39999H7.16667V3.06666H9.83333V4.39999ZM7.16667 7.06666C7.53486 7.06666 7.83333 7.36513 7.83333 7.73332V11.7333C7.83333 12.1015 7.53486 12.4 7.16667 12.4C6.79848 12.4 6.5 12.1015 6.5 11.7333V7.73332C6.5 7.36513 6.79848 7.06666 7.16667 7.06666ZM9.83333 7.06666C10.2015 7.06666 10.5 7.36513 10.5 7.73332V11.7333C10.5 12.1015 10.2015 12.4 9.83333 12.4C9.46514 12.4 9.16667 12.1015 9.16667 11.7333V7.73332C9.16667 7.36513 9.46514 7.06666 9.83333 7.06666Z" fill="#434343"/>
</svg>
