<svg width="17" height="17" viewBox="0 0 17 17" fill="none" xmlns="http://www.w3.org/2000/svg">
<path fill-rule="evenodd" clip-rule="evenodd" d="M11.6391 2.33806C12.0267 1.9508 12.5521 1.73325 13.1 1.73325C13.6481 1.73325 14.1738 1.95099 14.5614 2.33858C14.949 2.72617 15.1667 3.25185 15.1667 3.79998C15.1667 4.34796 14.9491 4.8735 14.5617 5.26106C14.5616 5.26117 14.5618 5.26095 14.5617 5.26106L13.7191 6.10667C13.6957 6.14125 13.6687 6.17411 13.6381 6.20473C13.608 6.23477 13.5758 6.26134 13.542 6.28445L8.97225 10.8705C8.84715 10.9961 8.67722 11.0667 8.5 11.0667H6.5C6.13181 11.0667 5.83333 10.7682 5.83333 10.4V8.39998C5.83333 8.22276 5.9039 8.05283 6.02944 7.92774L10.6156 3.35794C10.6387 3.32412 10.6652 3.29194 10.6953 3.26192C10.7259 3.23132 10.7587 3.20431 10.7933 3.1809L11.6386 2.33858C11.6388 2.33841 11.6389 2.33823 11.6391 2.33806ZM11.1742 4.68362L7.16667 8.67682V9.73332H8.22316L12.2164 5.72583L11.1742 4.68362ZM13.1575 4.78134L12.1186 3.7425L12.5814 3.28139C12.7189 3.14385 12.9055 3.06658 13.1 3.06658C13.2945 3.06658 13.4811 3.14385 13.6186 3.28139C13.7561 3.41893 13.8334 3.60547 13.8334 3.79998C13.8334 3.9945 13.7561 4.18104 13.6186 4.31858L13.1575 4.78134ZM3.08579 4.98578C3.46086 4.61071 3.96957 4.39999 4.5 4.39999H5.16667C5.53486 4.39999 5.83333 4.69847 5.83333 5.06666C5.83333 5.43485 5.53486 5.73333 5.16667 5.73333H4.5C4.32319 5.73333 4.15362 5.80357 4.0286 5.92859C3.90357 6.05361 3.83333 6.22318 3.83333 6.39999V12.4C3.83333 12.5768 3.90357 12.7464 4.0286 12.8714C4.15362 12.9964 4.32319 13.0667 4.5 13.0667H10.5C10.6768 13.0667 10.8464 12.9964 10.9714 12.8714C11.0964 12.7464 11.1667 12.5768 11.1667 12.4V11.7333C11.1667 11.3651 11.4651 11.0667 11.8333 11.0667C12.2015 11.0667 12.5 11.3651 12.5 11.7333V12.4C12.5 12.9304 12.2893 13.4391 11.9142 13.8142C11.5391 14.1893 11.0304 14.4 10.5 14.4H4.5C3.96957 14.4 3.46086 14.1893 3.08579 13.8142C2.71071 13.4391 2.5 12.9304 2.5 12.4V6.39999C2.5 5.86956 2.71071 5.36085 3.08579 4.98578Z" fill="#434343"/>
</svg>
