<svg width="24" height="24" viewBox="0 0 24 24" fill="none" xmlns="http://www.w3.org/2000/svg">
<path fill-rule="evenodd" clip-rule="evenodd" d="M2.33107 8.25667C2.7416 7.88724 3.37389 7.92056 3.74333 8.33109C5.95288 10.7865 8.6823 12 12 12C15.3177 12 18.0471 10.7865 20.2567 8.33109C20.6261 7.92056 21.2584 7.88724 21.6689 8.25667C22.0794 8.62611 22.1128 9.25839 21.7433 9.66893C21.1491 10.3293 20.5191 10.9145 19.8541 11.4245L21.8344 14.4251C22.1386 14.8861 22.0116 15.5064 21.5506 15.8106C21.0897 16.1148 20.4694 15.9877 20.1652 15.5268L18.1756 12.512C17.3532 12.9546 16.4862 13.2989 15.5758 13.5442L15.9923 16.876C16.0608 17.424 15.672 17.9238 15.124 17.9923C14.576 18.0608 14.0762 17.6721 14.0077 17.124L13.6064 13.9134C13.0832 13.9711 12.5477 14 12 14C11.4523 14 10.9168 13.9711 10.3936 13.9134L9.99227 17.124C9.92377 17.6721 9.42397 18.0608 8.87596 17.9923C8.32794 17.9238 7.93921 17.424 8.00771 16.876L8.42418 13.5442C7.51634 13.2996 6.65166 12.9566 5.83136 12.5157L3.83541 15.5496C3.53186 16.011 2.91176 16.1389 2.45037 15.8354C1.98899 15.5318 1.86103 14.9117 2.16457 14.4503L4.15213 11.4293C3.48484 10.9182 2.85274 10.3313 2.25665 9.66893C1.88722 9.25839 1.92054 8.62611 2.33107 8.25667Z" fill="#434343"/>
</svg>
