<svg width="67" height="80" viewBox="0 0 67 80" fill="none" xmlns="http://www.w3.org/2000/svg">
<g clip-path="url(#clip0_251_299)">
<path d="M33.3382 13.9278V27.7151C18.0245 27.7198 5.59178 15.3598 5.59821 0.139038H19.4682C19.4618 7.74781 25.6886 13.9326 33.3382 13.9262V13.9278Z" fill="url(#paint0_linear_251_299)"/>
<path d="M19.4666 27.771C19.4666 35.3862 25.6773 41.5582 33.3365 41.5582C40.9958 41.5582 47.2065 35.3846 47.2065 27.771H61.0765C61.0765 42.9998 48.6567 55.347 33.3349 55.347C18.0132 55.347 5.59655 43.0014 5.59655 27.771V0.140686C5.59655 10.348 11.1754 19.2593 19.4666 24.0266V27.771Z" fill="url(#paint1_linear_251_299)"/>
<path d="M64.4978 69.5561V79.9313H62.6377V62.7432H64.4978V67.7071H66.62V69.5561H64.4978Z" fill="url(#paint2_linear_251_299)"/>
<path d="M59.8563 67.7294H57.9961V79.9537H59.8563V67.7294Z" fill="url(#paint3_linear_251_299)"/>
<path d="M48.5458 77.9783L53.3626 67.7103H55.1922L49.4542 79.9345H47.6262L41.9042 67.7358L41.9155 67.731H43.729L48.5378 77.9815L48.5458 77.9783Z" fill="url(#paint4_linear_251_299)"/>
<path d="M32.9716 78.0822C35.3334 78.0822 37.2498 76.1756 37.2498 73.8232C37.2498 71.4707 35.3334 69.5625 32.9716 69.5625C30.6098 69.5625 28.6934 71.4691 28.6934 73.8232C28.6934 76.1772 30.6098 78.0822 32.9716 78.0822ZM39.1132 67.731V79.9345H37.253V78.2085L37.2498 78.2053C36.1453 79.276 34.6356 79.9345 32.9716 79.9345C29.5825 79.9345 26.8332 77.1985 26.8332 73.8232C26.8332 70.4479 29.5825 67.7103 32.9716 67.7103C34.6372 67.7103 36.1453 68.3687 37.2498 69.4395L37.253 69.4426V67.731H39.1132Z" fill="url(#paint5_linear_251_299)"/>
<path d="M19.764 69.4426C20.8701 68.3719 22.3798 67.7119 24.0422 67.7119V69.5657C21.6836 69.5657 19.7688 71.4707 19.764 73.8216V79.9329H17.9038V67.7087H19.764V69.4411V69.4426Z" fill="url(#paint6_linear_251_299)"/>
<path d="M15.1144 62.7528V64.6019H8.50978V79.9425H6.64962V64.6019H0.0466232V62.7528H15.1144Z" fill="url(#paint7_linear_251_299)"/>
</g>
<defs>
<linearGradient id="paint0_linear_251_299" x1="12.5324" y1="20.8222" x2="32.0294" y2="1.20654" gradientUnits="userSpaceOnUse">
<stop stop-color="#E75528"/>
<stop offset="0.15" stop-color="#E95D28"/>
<stop offset="0.38" stop-color="#EE732A"/>
<stop offset="0.64" stop-color="#F7942D"/>
</linearGradient>
<linearGradient id="paint1_linear_251_299" x1="28.7899" y1="23.6398" x2="1.26955" y2="-24.313" gradientUnits="userSpaceOnUse">
<stop stop-color="#E75528"/>
<stop offset="0.1" stop-color="#D43D2A"/>
<stop offset="0.21" stop-color="#BE202E"/>
<stop offset="0.43" stop-color="#96202E"/>
</linearGradient>
<linearGradient id="paint2_linear_251_299" x1="64.6296" y1="71.338" x2="64.6296" y2="67.3794" gradientUnits="userSpaceOnUse">
<stop stop-color="#414042"/>
<stop offset="0.24" stop-color="#4D4D4F"/>
<stop offset="0.53" stop-color="#555658"/>
<stop offset="1" stop-color="#58595B"/>
</linearGradient>
<linearGradient id="paint3_linear_251_299" x1="58.927" y1="73.8407" x2="58.927" y2="71.9917" gradientUnits="userSpaceOnUse">
<stop stop-color="#414042"/>
<stop offset="0.24" stop-color="#4D4D4F"/>
<stop offset="0.53" stop-color="#555658"/>
<stop offset="1" stop-color="#58595B"/>
</linearGradient>
<linearGradient id="paint4_linear_251_299" x1="48.5474" y1="73.8232" x2="48.5474" y2="60.6145" gradientUnits="userSpaceOnUse">
<stop stop-color="#414042"/>
<stop offset="0.24" stop-color="#4D4D4F"/>
<stop offset="0.53" stop-color="#555658"/>
<stop offset="1" stop-color="#58595B"/>
</linearGradient>
<linearGradient id="paint5_linear_251_299" x1="32.9732" y1="73.8232" x2="32.9732" y2="61.6165" gradientUnits="userSpaceOnUse">
<stop stop-color="#414042"/>
<stop offset="0.24" stop-color="#4D4D4F"/>
<stop offset="0.53" stop-color="#555658"/>
<stop offset="1" stop-color="#58595B"/>
</linearGradient>
<linearGradient id="paint6_linear_251_299" x1="20.973" y1="73.8232" x2="20.973" y2="67.7214" gradientUnits="userSpaceOnUse">
<stop stop-color="#414042"/>
<stop offset="0.24" stop-color="#4D4D4F"/>
<stop offset="0.53" stop-color="#555658"/>
<stop offset="1" stop-color="#58595B"/>
</linearGradient>
<linearGradient id="paint7_linear_251_299" x1="7.58051" y1="71.3476" x2="7.58051" y2="56.3698" gradientUnits="userSpaceOnUse">
<stop stop-color="#414042"/>
<stop offset="0.24" stop-color="#4D4D4F"/>
<stop offset="0.53" stop-color="#555658"/>
<stop offset="1" stop-color="#58595B"/>
</linearGradient>
<clipPath id="clip0_251_299">
<rect width="66.6667" height="80" fill="white"/>
</clipPath>
</defs>
</svg>
