<svg width="14" height="16" viewBox="0 0 14 16" fill="none" xmlns="http://www.w3.org/2000/svg">
<path fill-rule="evenodd" clip-rule="evenodd" d="M6.60117 2.10656L2.11061 4.75432C2.10483 4.75773 2.099 4.76105 2.09312 4.76428C1.82738 4.91035 1.66667 5.18441 1.66667 5.47805V10.334C1.66707 10.4801 1.70666 10.6234 1.78134 10.749C1.85611 10.8748 1.9633 10.9782 2.0917 11.0484C2.10416 11.0552 2.1164 11.0624 2.12841 11.07L6.60843 13.904C6.72923 13.9671 6.86356 14.0001 7 14.0001C7.13645 14.0001 7.27078 13.9671 7.39157 13.904L11.8716 11.07C11.8831 11.0627 11.8949 11.0557 11.9069 11.0492C12.1723 10.9033 12.3333 10.6287 12.3333 10.3347V5.47458C12.3352 5.17899 12.1773 4.90562 11.9205 4.75959C11.8813 4.73732 11.8451 4.71154 11.8121 4.68282L7.44285 2.10656C7.31357 2.03685 7.16896 2.00033 7.022 2.00033C6.87505 2.00033 6.73044 2.03685 6.60117 2.10656ZM12.7258 3.69163C12.6912 3.65943 12.6527 3.63057 12.6106 3.60578L8.11061 0.952446C8.10508 0.949187 8.09951 0.946008 8.09389 0.94291C7.76562 0.761915 7.39686 0.666992 7.022 0.666992C6.64714 0.666992 6.27838 0.761915 5.95011 0.94291C5.9445 0.946008 5.93892 0.949187 5.93339 0.952446L1.44127 3.60114C0.759286 3.98047 0.333336 4.6967 0.333336 5.47805V10.3347L0.333337 10.3361C0.334111 10.7213 0.438372 11.0992 0.635218 11.4304C0.828098 11.7548 1.10293 12.0227 1.43194 12.2071L5.9156 15.0435C5.92723 15.0508 5.93909 15.0578 5.95116 15.0644C6.27257 15.2409 6.63332 15.3334 7 15.3334C7.36668 15.3334 7.72743 15.2409 8.04885 15.0644C8.06091 15.0578 8.07277 15.0508 8.08441 15.0435L12.5687 12.2067C13.2451 11.8258 13.6667 11.1119 13.6667 10.3347V5.48063C13.6704 4.76148 13.3148 4.09198 12.7258 3.69163ZM7 4.66667C7.36819 4.66667 7.66667 4.96514 7.66667 5.33333V8C7.66667 8.36819 7.36819 8.66667 7 8.66667C6.63181 8.66667 6.33334 8.36819 6.33334 8V5.33333C6.33334 4.96514 6.63181 4.66667 7 4.66667ZM6.33334 10.6667C6.33334 10.2985 6.63181 10 7 10H7.00667C7.37486 10 7.67334 10.2985 7.67334 10.6667C7.67334 11.0349 7.37486 11.3333 7.00667 11.3333H7C6.63181 11.3333 6.33334 11.0349 6.33334 10.6667Z" fill="#72240C"/>
</svg>
