<svg width="14" height="14" viewBox="0 0 14 14" fill="none" xmlns="http://www.w3.org/2000/svg">
<path fill-rule="evenodd" clip-rule="evenodd" d="M2.67141 2.67138C1.98341 3.35938 1.66667 4.59522 1.66667 6.99998C1.66667 9.40474 1.98341 10.6406 2.67141 11.3286C3.3594 12.0166 4.59524 12.3333 7 12.3333C9.40477 12.3333 10.6406 12.0166 11.3286 11.3286C12.0166 10.6406 12.3333 9.40474 12.3333 6.99998C12.3333 4.59522 12.0166 3.35938 11.3286 2.67138C10.6406 1.98339 9.40477 1.66665 7 1.66665C4.59524 1.66665 3.3594 1.98339 2.67141 2.67138ZM1.7286 1.72858C2.8406 0.61657 4.60477 0.333313 7 0.333313C9.39524 0.333313 11.1594 0.61657 12.2714 1.72858C13.3834 2.84058 13.6667 4.60474 13.6667 6.99998C13.6667 9.39522 13.3834 11.1594 12.2714 12.2714C11.1594 13.3834 9.39524 13.6666 7 13.6666C4.60477 13.6666 2.8406 13.3834 1.7286 12.2714C0.616593 11.1594 0.333336 9.39522 0.333336 6.99998C0.333336 4.60474 0.616593 2.84058 1.7286 1.72858ZM6.33334 4.99998C6.33334 4.63179 6.63181 4.33331 7 4.33331H7.00667C7.37486 4.33331 7.67334 4.63179 7.67334 4.99998C7.67334 5.36817 7.37486 5.66665 7.00667 5.66665H7C6.63181 5.66665 6.33334 5.36817 6.33334 4.99998ZM5.66667 6.99998C5.66667 6.63179 5.96515 6.33331 6.33334 6.33331H7C7.36819 6.33331 7.66667 6.63179 7.66667 6.99998V8.99998C8.03486 8.99998 8.33334 9.29846 8.33334 9.66665C8.33334 10.0348 8.03486 10.3333 7.66667 10.3333H7C6.63181 10.3333 6.33334 10.0348 6.33334 9.66665V7.66665C5.96515 7.66665 5.66667 7.36817 5.66667 6.99998Z" fill="#434343"/>
</svg>
