<svg width="14" height="14" viewBox="0 0 14 14" fill="none" xmlns="http://www.w3.org/2000/svg">
<path fill-rule="evenodd" clip-rule="evenodd" d="M2.28596 2.28596C3.5362 1.03572 5.23189 0.333344 7 0.333344C8.76811 0.333344 10.4638 1.03572 11.714 2.28596C12.9643 3.53621 13.6667 5.2319 13.6667 7.00001C13.6667 7.87549 13.4942 8.7424 13.1592 9.55123C12.8242 10.3601 12.3331 11.095 11.714 11.7141C11.095 12.3331 10.3601 12.8242 9.55123 13.1592C8.74239 13.4942 7.87548 13.6667 7 13.6667C6.12452 13.6667 5.25762 13.4942 4.44878 13.1592C3.63994 12.8242 2.90501 12.3331 2.28596 11.7141C1.6669 11.095 1.17584 10.3601 0.840806 9.55123C0.505774 8.7424 0.333336 7.87549 0.333336 7.00001C0.333336 5.2319 1.03571 3.53621 2.28596 2.28596ZM7 1.66668C5.58552 1.66668 4.22896 2.22858 3.22877 3.22877C2.22857 4.22897 1.66667 5.58552 1.66667 7.00001C1.66667 7.70039 1.80462 8.39392 2.07264 9.04099C2.34067 9.68806 2.73352 10.276 3.22877 10.7712C3.72401 11.2665 4.31195 11.6593 4.95902 11.9274C5.60609 12.1954 6.29962 12.3333 7 12.3333C7.70039 12.3333 8.39391 12.1954 9.04098 11.9274C9.68805 11.6593 10.276 11.2665 10.7712 10.7712C11.2665 10.276 11.6593 9.68806 11.9274 9.04099C12.1954 8.39392 12.3333 7.70039 12.3333 7.00001C12.3333 5.58552 11.7714 4.22897 10.7712 3.22877C9.77104 2.22858 8.41449 1.66668 7 1.66668ZM6.33334 5.00001C6.33334 4.63182 6.63181 4.33334 7 4.33334H7.00667C7.37486 4.33334 7.67334 4.63182 7.67334 5.00001C7.67334 5.3682 7.37486 5.66668 7.00667 5.66668H7C6.63181 5.66668 6.33334 5.3682 6.33334 5.00001ZM5.66667 7.00001C5.66667 6.63182 5.96515 6.33334 6.33334 6.33334H7C7.36819 6.33334 7.66667 6.63182 7.66667 7.00001V9.00001C8.03486 9.00001 8.33334 9.29849 8.33334 9.66668C8.33334 10.0349 8.03486 10.3333 7.66667 10.3333H7C6.63181 10.3333 6.33334 10.0349 6.33334 9.66668V7.66668C5.96515 7.66668 5.66667 7.3682 5.66667 7.00001Z" fill="#103394"/>
</svg>
