<svg width="16" height="13" viewBox="0 0 16 13" fill="none" xmlns="http://www.w3.org/2000/svg">
<path fill-rule="evenodd" clip-rule="evenodd" d="M7.04647 0.361925C7.33752 0.197959 7.66593 0.111816 7.99999 0.111816C8.33405 0.111816 8.66246 0.197959 8.95351 0.361925C9.24456 0.52589 9.48841 0.762138 9.66151 1.04785L9.66328 1.05078L15.0673 10.0748L15.0728 10.0843C15.2422 10.378 15.3318 10.7109 15.3326 11.0499C15.3334 11.3889 15.2456 11.7222 15.0777 12.0168C14.9098 12.3113 14.6677 12.5568 14.3756 12.7288C14.0834 12.9008 13.7513 12.9933 13.4123 12.9973L13.4047 12.9973L2.58783 12.9973C2.24868 12.9935 1.91644 12.9009 1.62415 12.7288C1.33186 12.5568 1.08972 12.3112 0.921795 12.0165C0.753874 11.7218 0.666029 11.3883 0.667 11.0491C0.667971 10.71 0.757724 10.377 0.927331 10.0833L0.932727 10.0741L6.32604 1.06926C6.33005 1.06206 6.33419 1.05492 6.33847 1.04785C6.51157 0.762138 6.75542 0.52589 7.04647 0.361925ZM7.99999 1.44515C7.89521 1.44515 7.7922 1.47217 7.70091 1.5236C7.61385 1.57264 7.54025 1.64231 7.48653 1.72639C7.48458 1.72978 7.4826 1.73315 7.48059 1.73651L2.07982 10.7538C2.02802 10.845 2.00063 10.948 2.00033 11.053C2.00002 11.1593 2.02758 11.264 2.08025 11.3564C2.13292 11.4488 2.20887 11.5259 2.30055 11.5798C2.39135 11.6333 2.49444 11.6623 2.59976 11.664H13.4001C13.5054 11.6622 13.6084 11.6332 13.6991 11.5798C13.7907 11.5258 13.8666 11.4489 13.9193 11.3565C13.972 11.2641 13.9995 11.1595 13.9993 11.0532C13.999 10.9484 13.9717 10.8454 13.92 10.7542L8.52114 1.73874C8.52089 1.73834 8.52065 1.73793 8.5204 1.73753C8.46615 1.64846 8.38995 1.5748 8.29907 1.5236C8.20778 1.47217 8.10477 1.44515 7.99999 1.44515ZM8 4.33333C8.36819 4.33333 8.66667 4.63181 8.66667 5V7.66667C8.66667 8.03486 8.36819 8.33333 8 8.33333C7.63181 8.33333 7.33333 8.03486 7.33333 7.66667V5C7.33333 4.63181 7.63181 4.33333 8 4.33333ZM7.33333 9.66667C7.33333 9.29848 7.63181 9 8 9H8.00667C8.37486 9 8.67333 9.29848 8.67333 9.66667C8.67333 10.0349 8.37486 10.3333 8.00667 10.3333H8C7.63181 10.3333 7.33333 10.0349 7.33333 9.66667Z" fill="#434343"/>
</svg>
